<?xml version="1.0" standalone="no"?>
<!DOCTYPE svg PUBLIC "-//W3C//DTD SVG 20010904//EN"
 "http://www.w3.org/TR/2001/REC-SVG-20010904/DTD/svg10.dtd">
<svg version="1.0" xmlns="http://www.w3.org/2000/svg"
 width="733.000000pt" height="733.000000pt" viewBox="0 0 733.000000 733.000000"
 preserveAspectRatio="xMidYMid meet">
<metadata>
Created by potrace 1.14, written by Peter Selinger 2001-2017
</metadata>
<g transform="translate(0.000000,733.000000) scale(0.100000,-0.100000)"
fill="#000000" stroke="none">
<path d="M3230 7314 c-592 -49 -919 -127 -1285 -305 -253 -122 -497 -316 -666
-529 -168 -211 -341 -540 -403 -765 -89 -325 -109 -791 -51 -1185 35 -235 134
-467 280 -650 102 -128 327 -314 577 -476 57 -37 159 -104 228 -149 124 -81
376 -235 384 -235 2 0 41 -23 85 -50 44 -28 83 -50 85 -50 3 0 29 -14 58 -32
97 -57 176 -98 190 -98 8 0 27 14 44 31 69 74 200 160 306 202 206 83 486 77
735 -14 306 -112 556 -305 678 -524 67 -121 109 -263 120 -415 9 -112 -19
-242 -77 -360 -59 -118 -169 -228 -288 -288 -116 -58 -203 -76 -375 -76 -150
0 -247 18 -447 85 -446 147 -792 560 -834 995 -3 38 -12 78 -19 89 -7 11 -66
54 -131 95 -66 41 -184 117 -264 168 -180 117 -222 144 -333 213 -48 30 -105
65 -127 79 -106 67 -244 156 -433 278 -173 112 -210 132 -222 122 -47 -39
-167 -275 -237 -463 -88 -239 -122 -441 -122 -717 1 -269 39 -485 129 -723 68
-184 220 -464 311 -577 7 -8 42 -52 78 -96 320 -401 849 -719 1406 -845 47
-11 112 -26 146 -34 51 -13 192 -15 898 -15 l838 0 102 25 c598 145 1108 441
1438 835 235 280 398 609 482 977 97 420 112 854 45 1273 -62 385 -215 733
-413 938 -294 305 -817 579 -1370 718 l-141 36 -28 -34 c-161 -189 -202 -217
-387 -261 -282 -68 -442 -19 -1510 459 l-75 33 1 46 c1 79 10 81 164 35 74
-22 167 -49 205 -61 39 -11 106 -31 150 -45 249 -76 630 -184 650 -184 33 0
51 25 39 57 -8 24 -25 32 -149 71 -77 24 -194 61 -260 82 -66 21 -176 55 -245
75 -69 21 -163 50 -210 65 -47 15 -132 42 -188 60 l-104 33 7 34 c9 50 23 83
34 83 6 0 45 -11 88 -24 43 -13 87 -26 98 -29 26 -6 412 -118 695 -202 124
-36 234 -64 245 -63 23 3 48 49 39 71 -7 20 -147 66 -794 257 -225 67 -335
102 -342 108 -9 9 10 83 25 98 9 9 36 4 107 -18 52 -16 158 -49 235 -72 77
-24 178 -55 225 -69 47 -14 130 -39 185 -55 178 -54 335 -93 375 -94 44 0 70
15 70 42 0 28 -29 45 -135 80 -55 18 -125 41 -155 51 -72 24 -374 118 -522
163 -276 84 -348 108 -353 116 -11 18 15 90 32 90 17 0 62 -12 548 -151 138
-39 264 -75 280 -79 58 -15 190 -51 238 -65 71 -21 115 0 103 49 -6 26 -37 40
-221 100 -126 40 -710 226 -830 263 -44 14 -86 30 -92 35 -14 11 -7 56 11 74
12 13 2 14 446 -65 151 -28 370 -66 485 -86 243 -41 280 -49 355 -78 197 -75
362 -216 458 -390 45 -83 62 -127 104 -266 l13 -44 140 -58 c77 -32 174 -73
215 -90 41 -17 84 -35 95 -40 20 -9 85 -36 440 -178 99 -40 278 -113 398 -162
120 -49 222 -87 226 -84 22 13 82 275 101 444 16 134 8 455 -14 576 -113 621
-448 1140 -915 1418 -351 209 -782 343 -1256 392 -179 19 -717 18 -945 -1z"/>
</g>
</svg>
